<?xml version="1.0" standalone="no"?>
<!DOCTYPE svg PUBLIC "-//W3C//DTD SVG 20010904//EN"
 "http://www.w3.org/TR/2001/REC-SVG-20010904/DTD/svg10.dtd">
<svg version="1.0" xmlns="http://www.w3.org/2000/svg"
 width="1200.000000pt" height="1200.000000pt" viewBox="0 0 1200.000000 1200.000000"
 preserveAspectRatio="xMidYMid meet">

<g transform="translate(0.000000,1200.000000) scale(0.100000,-0.100000)"
fill="#000000" stroke="none">
<path d="M5758 10119 c-104 -24 -2254 -682 -2290 -700 -156 -79 -290 -222
-357 -382 -41 -100 -54 -187 -48 -325 l5 -117 239 -785 239 -785 34 1 c19 0
72 4 116 9 70 7 92 5 152 -14 40 -12 91 -37 118 -57 l47 -36 -7 29 c-4 15
-124 413 -267 884 -279 922 -278 919 -243 1023 22 63 100 148 162 174 27 12
318 103 648 202 329 100 806 245 1059 322 511 156 553 164 646 129 67 -25 130
-78 163 -134 14 -23 189 -584 390 -1247 200 -663 381 -1259 401 -1325 20 -66
56 -185 80 -265 24 -80 114 -376 199 -658 178 -585 180 -597 127 -707 -32 -70
-101 -136 -164 -159 -23 -9 -519 -160 -1102 -337 -1209 -367 -1145 -353 -1271
-289 -75 38 -133 103 -157 175 -13 37 -17 40 -48 38 -174 -11 -275 4 -372 53
-27 13 -51 23 -53 22 -7 -8 92 -302 122 -358 69 -131 189 -247 326 -314 116
-57 184 -71 333 -70 l130 1 1110 337 c720 218 1138 350 1190 375 277 131 449
450 405 750 -6 41 -136 489 -289 995 -154 507 -426 1407 -606 2001 -200 660
-340 1107 -361 1150 -91 188 -270 332 -479 385 -84 21 -255 26 -327 9z"/>
<path d="M5197 9226 c-75 -25 -96 -46 -97 -94 0 -40 38 -82 73 -82 41 0 157
40 178 61 28 28 25 84 -6 114 -30 31 -59 31 -148 1z"/>
<path d="M4551 9031 c-303 -93 -321 -102 -321 -163 0 -38 40 -78 79 -78 16 0
157 38 312 86 201 60 289 91 302 106 27 32 23 92 -9 117 -15 12 -38 21 -53 20
-14 0 -154 -40 -310 -88z"/>
<path d="M4704 7891 c-69 -25 -102 -43 -151 -83 -56 -44 -123 -134 -123 -165
0 -61 60 -111 115 -97 13 3 47 33 75 65 72 83 133 113 230 113 60 1 85 -4 124
-23 146 -72 204 -232 141 -386 -32 -78 -32 -115 1 -146 18 -17 37 -24 66 -24
34 0 45 6 69 34 60 72 93 240 70 353 -30 144 -131 271 -268 336 -74 35 -84 37
-188 39 -87 2 -121 -1 -161 -16z"/>
<path d="M7340 7796 c0 -3 13 -47 29 -98 16 -51 41 -132 55 -180 15 -49 29
-88 33 -88 3 0 121 9 262 20 248 19 711 54 1650 125 249 18 455 35 456 37 3 3
-1360 108 -1935 149 -126 9 -339 25 -467 35 -46 4 -83 4 -83 0z"/>
<path d="M4800 7553 c-48 -18 -93 -85 -405 -593 -317 -516 -339 -550 -366
-550 -15 0 -30 4 -34 9 -3 6 -14 73 -25 151 -12 84 -28 157 -40 179 -42 83
-129 129 -224 117 -27 -3 -50 -7 -51 -8 -2 -2 -22 -265 -44 -586 -46 -645 -46
-651 11 -771 48 -102 97 -142 396 -325 364 -224 358 -221 502 -221 112 0 117
1 192 37 87 41 163 107 218 188 45 67 462 744 490 797 25 46 26 115 3 154 -25
41 -93 73 -140 64 -55 -10 -82 -33 -131 -110 -59 -93 -68 -99 -102 -65 -24 24
-23 28 59 159 77 124 88 174 49 231 -49 74 -137 87 -202 29 -18 -15 -62 -77
-99 -137 -37 -61 -74 -113 -83 -116 -23 -9 -54 12 -54 35 0 12 39 84 86 161
97 156 109 198 78 263 -26 55 -67 77 -132 72 -70 -5 -89 -25 -201 -207 -49
-80 -96 -149 -105 -155 -21 -13 -50 4 -54 33 -2 13 98 186 281 484 156 255
289 473 295 485 18 34 14 104 -8 140 -31 52 -104 77 -160 56z"/>
<path d="M7620 6873 c0 -5 24 -87 54 -183 44 -144 57 -176 73 -178 11 -2 173
9 359 23 418 31 536 40 1346 101 356 27 644 51 640 55 -4 3 -236 23 -517 43
-280 21 -681 51 -890 66 -1221 93 -1065 83 -1065 73z"/>
<path d="M7905 5928 c20 -59 74 -252 80 -285 5 -31 12 -43 23 -43 10 0 247 18
527 39 281 22 767 59 1082 82 315 24 571 45 569 46 -2 3 -354 30 -1396 108
-256 20 -550 42 -654 50 -230 18 -237 18 -231 3z"/>
<path d="M5930 5515 c-97 -32 -113 -41 -133 -75 -23 -38 -21 -65 9 -162 46
-147 85 -165 247 -114 74 23 91 32 108 59 25 39 21 99 -13 201 -37 112 -88
133 -218 91z m148 -148 c13 -43 21 -84 19 -91 -5 -12 -137 -56 -169 -56 -12 0
-23 22 -42 81 -13 45 -22 87 -19 95 6 16 119 53 158 51 28 -2 31 -6 53 -80z"/>
<path d="M7806 4930 c-53 -69 -153 -161 -225 -205 -34 -21 -60 -39 -59 -40 2
-1 48 2 103 6 55 4 523 40 1040 79 517 39 945 72 950 74 6 3 -2 5 -16 5 -14 1
-82 5 -150 11 -171 14 -1585 120 -1596 120 -5 0 -26 -22 -47 -50z"/>
<path d="M1920 3646 c-152 -45 -252 -116 -329 -232 -61 -91 -91 -181 -98 -294
-10 -177 43 -318 166 -440 126 -126 263 -180 451 -180 276 0 496 142 586 376
32 84 43 238 25 336 -41 211 -220 390 -441 442 -100 24 -268 20 -360 -8z m347
-231 c186 -83 258 -325 155 -518 -102 -191 -383 -235 -546 -86 -81 74 -110
138 -114 259 -4 110 15 178 71 249 100 126 280 166 434 96z"/>
<path d="M3360 3085 l0 -565 130 0 130 0 2 340 3 340 279 -340 279 -340 108 0
109 0 0 565 0 565 -130 0 -130 0 -2 -340 -3 -339 -278 339 -278 340 -109 0
-110 0 0 -565z"/>
<path d="M5100 3085 l0 -565 415 0 415 0 0 105 0 105 -285 0 -285 0 0 460 0
460 -130 0 -130 0 0 -565z"/>
<path d="M6500 3085 l0 -565 130 0 130 0 0 565 0 565 -130 0 -130 0 0 -565z"/>
<path d="M7460 3085 l0 -565 130 0 130 0 2 340 3 339 279 -339 278 -340 109 0
109 0 0 565 0 565 -130 0 -130 0 -2 -340 -3 -340 -278 340 -278 340 -110 0
-109 0 0 -565z"/>
<path d="M9194 3085 l1 -565 443 0 443 0 -3 103 -3 102 -307 3 -308 2 0 130 0
130 260 0 260 0 0 105 0 105 -260 0 -260 0 0 120 0 120 295 0 295 0 0 105 0
105 -429 0 -428 0 1 -565z"/>
<path d="M3005 2286 c-38 -16 -53 -35 -61 -73 -9 -44 26 -78 106 -100 57 -17
65 -22 65 -44 0 -23 -3 -24 -60 -23 -33 0 -70 4 -82 8 -17 6 -23 3 -28 -14 -9
-28 0 -36 55 -51 98 -26 190 16 190 86 0 43 -31 70 -109 91 -66 19 -82 34 -61
59 14 17 76 20 113 6 26 -10 37 1 37 34 0 31 -110 45 -165 21z"/>
<path d="M4593 2280 c-57 -29 -83 -73 -83 -140 0 -68 27 -112 86 -140 186 -90
338 150 173 272 -40 30 -125 34 -176 8z m148 -69 c23 -23 29 -38 29 -71 0 -87
-92 -130 -159 -74 -27 22 -31 32 -31 74 0 42 4 52 31 74 43 36 91 35 130 -3z"/>
<path d="M8420 2278 c-87 -44 -114 -157 -55 -234 46 -60 148 -79 229 -43 24
11 26 17 26 76 l0 63 -30 0 c-29 0 -30 -2 -30 -44 0 -47 -9 -56 -56 -56 -37 0
-78 25 -92 55 -43 94 53 179 147 131 25 -13 31 -13 50 1 21 14 21 16 5 34 -38
42 -129 50 -194 17z"/>
<path d="M3707 2283 c-4 -3 -7 -71 -7 -150 l0 -143 35 0 35 0 0 60 0 60 75 0
75 0 0 -60 0 -60 34 0 34 0 1 150 2 150 -36 0 -35 0 0 -60 0 -60 -75 0 -75 0
0 60 c0 59 0 60 -28 60 -16 0 -32 -3 -35 -7z"/>
<path d="M5360 2140 l0 -150 35 0 c34 0 35 1 35 40 l0 40 45 0 c107 0 170 61
146 142 -19 61 -56 78 -168 78 l-93 0 0 -150z m180 80 c24 -24 25 -38 4 -68
-12 -18 -25 -22 -65 -22 l-49 0 0 55 0 55 45 0 c32 0 51 -6 65 -20z"/>
<path d="M6140 2141 l0 -151 35 0 c34 0 35 1 35 39 l0 38 63 5 c35 3 75 13 89
22 55 36 61 121 12 167 -23 22 -36 24 -130 27 l-104 4 0 -151z m180 79 c44
-44 12 -90 -62 -90 l-48 0 0 55 0 55 45 0 c32 0 51 -6 65 -20z"/>
<path d="M6930 2140 l0 -150 30 0 30 0 0 150 0 150 -30 0 -30 0 0 -150z"/>
<path d="M7530 2140 l0 -150 35 0 34 0 3 91 3 90 73 -90 c62 -77 78 -91 103
-91 l29 0 0 150 0 150 -35 0 -34 0 -3 -87 -3 -88 -70 87 c-61 76 -74 87 -102
87 l-33 1 0 -150z"/>
</g>
</svg>
